<?xml version="1.0" standalone="no"?><!DOCTYPE svg PUBLIC "-//W3C//DTD SVG 1.1//EN" "http://www.w3.org/Graphics/SVG/1.1/DTD/svg11.dtd"><svg xmlns:xlink="http://www.w3.org/1999/xlink" version="1.1" class="highcharts-root" style="font-family:&quot;Lucida Grande&quot;, &quot;Lucida Sans Unicode&quot;, Arial, Helvetica, sans-serif;font-size:12px;" xmlns="http://www.w3.org/2000/svg" width="600" height="420" viewBox="0 0 600 420"><desc>Created with Highcharts 8.1.2</desc><defs><clipPath id="highcharts-sae4rkz-158-"><rect x="0" y="0" width="513" height="267" fill="none"></rect></clipPath></defs><rect fill="#ffffff" class="highcharts-background" x="0" y="0" width="600" height="420" rx="0" ry="0"></rect><rect fill="none" class="highcharts-plot-background" x="77" y="47" width="513" height="267"></rect><g class="highcharts-grid highcharts-xaxis-grid" data-z-index="1"><path fill="none" data-z-index="1" class="highcharts-grid-line" d="M 154.5 47 L 154.5 314" opacity="1"></path><path fill="none" data-z-index="1" class="highcharts-grid-line" d="M 280.5 47 L 280.5 314" opacity="1"></path><path fill="none" data-z-index="1" class="highcharts-grid-line" d="M 405.5 47 L 405.5 314" opacity="1"></path><path fill="none" data-z-index="1" class="highcharts-grid-line" d="M 531.5 47 L 531.5 314" opacity="1"></path></g><g class="highcharts-grid highcharts-yaxis-grid" data-z-index="1"><path fill="none" stroke="#e6e6e6" stroke-width="1" data-z-index="1" class="highcharts-grid-line" d="M 77 314.5 L 590 314.5" opacity="1"></path><path fill="none" stroke="#e6e6e6" stroke-width="1" data-z-index="1" class="highcharts-grid-line" d="M 77 261.5 L 590 261.5" opacity="1"></path><path fill="none" stroke="#e6e6e6" stroke-width="1" data-z-index="1" class="highcharts-grid-line" d="M 77 207.5 L 590 207.5" opacity="1"></path><path fill="none" stroke="#e6e6e6" stroke-width="1" data-z-index="1" class="highcharts-grid-line" d="M 77 154.5 L 590 154.5" opacity="1"></path><path fill="none" stroke="#e6e6e6" stroke-width="1" data-z-index="1" class="highcharts-grid-line" d="M 77 100.5 L 590 100.5" opacity="1"></path><path fill="none" stroke="#e6e6e6" stroke-width="1" data-z-index="1" class="highcharts-grid-line" d="M 77 46.5 L 590 46.5" opacity="1"></path></g><rect fill="none" class="highcharts-plot-border" data-z-index="1" x="77" y="47" width="513" height="267"></rect><g class="highcharts-axis highcharts-xaxis" data-z-index="2"><path fill="none" class="highcharts-tick" stroke="#ccd6eb" stroke-width="1" d="M 154.5 314 L 154.5 324" opacity="1"></path><path fill="none" class="highcharts-tick" stroke="#ccd6eb" stroke-width="1" d="M 280.5 314 L 280.5 324" opacity="1"></path><path fill="none" class="highcharts-tick" stroke="#ccd6eb" stroke-width="1" d="M 405.5 314 L 405.5 324" opacity="1"></path><path fill="none" class="highcharts-tick" stroke="#ccd6eb" stroke-width="1" d="M 531.5 314 L 531.5 324" opacity="1"></path><text x="333.5" data-z-index="7" text-anchor="middle" transform="translate(0,0)" class="highcharts-axis-title" style="color:#666666;fill:#666666;" y="352"><tspan>Date</tspan></text><path fill="none" class="highcharts-axis-line" stroke="#ccd6eb" stroke-width="1" data-z-index="7" d="M 77 314.5 L 590 314.5"></path></g><g class="highcharts-axis highcharts-yaxis" data-z-index="2"><text x="23.765625" data-z-index="7" text-anchor="middle" transform="translate(0,0) rotate(270 23.765625 180.5)" class="highcharts-axis-title" style="color:#666666;fill:#666666;" y="180.5"><tspan>% of total framework mentions</tspan></text><path fill="none" class="highcharts-axis-line" data-z-index="7" d="M 77 47 L 77 314"></path></g><g class="highcharts-series-group" data-z-index="3"><g class="highcharts-series highcharts-series-0 highcharts-line-series" data-z-index="0.1" opacity="1" transform="translate(77,47) scale(1 1)" clip-path="url(#highcharts-sae4rkz-158-)"><path fill="none" d="M 287.47493559468 135.99532710280374" class="highcharts-graph" data-z-index="1" stroke="#7cb5ec" stroke-width="2" stroke-dasharray="none"></path></g><g class="highcharts-markers highcharts-series-0 highcharts-line-series" data-z-index="0.1" opacity="1" transform="translate(77,47) scale(1 1)" clip-path="none"><path fill="#7cb5ec" d="M 287 140 A 4 4 0 1 1 287.00399999933336 139.99999800000018 Z" opacity="1" class="highcharts-point"></path></g><g class="highcharts-series highcharts-series-1 highcharts-line-series" data-z-index="0.1" opacity="1" transform="translate(77,47) scale(1 1)" clip-path="url(#highcharts-sae4rkz-158-)"><path fill="none" d="M 67.610253864319 267 L 193.2595064942 233.96907216494844 L 318.90875912409 168.70149253731344 L 444.55801175397 97.0909090909091" class="highcharts-graph" data-z-index="1" stroke="#f7a35c" stroke-width="2" stroke-dasharray="none"></path></g><g class="highcharts-markers highcharts-series-1 highcharts-line-series" data-z-index="0.1" opacity="1" transform="translate(77,47) scale(1 1)" clip-path="none"><path fill="#f7a35c" d="M 67 263 L 71 267 L 67 271 L 63 267 Z" opacity="1" class="highcharts-point"></path><path fill="#f7a35c" d="M 193 230 L 197 234 L 193 238 L 189 234 Z" opacity="1" class="highcharts-point"></path><path fill="#f7a35c" d="M 318 165 L 322 169 L 318 173 L 314 169 Z" opacity="1" class="highcharts-point"></path><path fill="#f7a35c" d="M 444 93 L 448 97 L 444 101 L 440 97 Z" opacity="1" class="highcharts-point"></path></g><g class="highcharts-series highcharts-series-2 highcharts-line-series" data-z-index="0.1" opacity="1" transform="translate(77,47) scale(1 1)" clip-path="url(#highcharts-sae4rkz-158-)"><path fill="none" d="M 151.35730195363 260.64285714285717 L 277.00655458351 149.95890410958904 L 402.6558072134 75.42372881355931" class="highcharts-graph" data-z-index="1" stroke="#90ee7e" stroke-width="2" stroke-dasharray="none"></path></g><g class="highcharts-markers highcharts-series-2 highcharts-line-series" data-z-index="0.1" opacity="1" transform="translate(77,47) scale(1 1)" clip-path="none"><path fill="#90ee7e" d="M 147 257 L 155 257 L 155 265 L 147 265 Z" opacity="1" class="highcharts-point"></path><path fill="#90ee7e" d="M 273 146 L 281 146 L 281 154 L 273 154 Z" opacity="1" class="highcharts-point"></path><path fill="#90ee7e" d="M 398 71 L 406 71 L 406 79 L 398 79 Z" opacity="1" class="highcharts-point"></path></g><g class="highcharts-series highcharts-series-3 highcharts-line-series" data-z-index="0.1" opacity="1" transform="translate(77,47) scale(1 1)" clip-path="url(#highcharts-sae4rkz-158-)"><path fill="none" d="M 256.06979256119 196.3235294117647 L 381.71904519107 83.12264150943398" class="highcharts-graph" data-z-index="1" stroke="#7798BF" stroke-width="2" stroke-dasharray="none"></path></g><g class="highcharts-markers highcharts-series-3 highcharts-line-series" data-z-index="0.1" opacity="1" transform="translate(77,47) scale(1 1)" clip-path="none"><path fill="#7798BF" d="M 256 192 L 260 200 L 252 200 Z" opacity="1" class="highcharts-point"></path><path fill="#7798BF" d="M 381 79 L 385 87 L 377 87 Z" opacity="1" class="highcharts-point"></path></g><g class="highcharts-series highcharts-series-4 highcharts-line-series" data-z-index="0.1" opacity="1" transform="translate(77,47) scale(1 1)" clip-path="url(#highcharts-sae4rkz-158-)"><path fill="none" d="M 130.50658141906 248.89830508474577 L 256.15583404895 187.7802197802198 L 381.80508667883 133.5 L 507.79850525977 89" class="highcharts-graph" data-z-index="1" stroke="#aacece" stroke-width="2" stroke-dasharray="none"></path></g><g class="highcharts-markers highcharts-series-4 highcharts-line-series" data-z-index="0.1" opacity="1" transform="translate(77,47) scale(1 1)" clip-path="none"><path fill="#aacece" d="M 126 245 L 134 245 L 130 253 Z" opacity="1" class="highcharts-point"></path><path fill="#aacece" d="M 252 184 L 260 184 L 256 192 Z" opacity="1" class="highcharts-point"></path><path fill="#aacece" d="M 377 130 L 385 130 L 381 138 Z" opacity="1" class="highcharts-point"></path><path fill="#aacece" d="M 503 85 L 511 85 L 507 93 Z" opacity="1" class="highcharts-point"></path></g><g class="highcharts-series highcharts-series-5 highcharts-line-series" data-z-index="0.1" opacity="1" transform="translate(77,47) scale(1 1)" clip-path="url(#highcharts-sae4rkz-158-)"><path fill="none" d="M 5.0294117647059 267 L 130.67866439459 267 L 256.32791702447 161.85398230088495 L 381.97716965436 89.40271493212671 L 507.97058823529 56.819209039548014" class="highcharts-graph" data-z-index="1" stroke="#ff0066" stroke-width="2" stroke-dasharray="none"></path></g><g class="highcharts-markers highcharts-series-5 highcharts-line-series" data-z-index="0.1" opacity="1" transform="translate(77,47) scale(1 1)" clip-path="none"><path fill="#ff0066" d="M 5 271 A 4 4 0 1 1 5.0039999993333355 270.9999980000002 Z" opacity="1" class="highcharts-point"></path><path fill="#ff0066" d="M 130 271 A 4 4 0 1 1 130.00399999933333 270.9999980000002 Z" opacity="1" class="highcharts-point"></path><path fill="#ff0066" d="M 256 166 A 4 4 0 1 1 256.00399999933336 165.99999800000018 Z" opacity="1" class="highcharts-point"></path><path fill="#ff0066" d="M 381 93 A 4 4 0 1 1 381.00399999933336 92.99999800000016 Z" opacity="1" class="highcharts-point"></path><path fill="#ff0066" d="M 507 61 A 4 4 0 1 1 507.00399999933336 60.99999800000017 Z" opacity="1" class="highcharts-point"></path></g><g class="highcharts-series highcharts-series-6 highcharts-line-series" data-z-index="0.1" opacity="1" transform="translate(77,47) scale(1 1)" clip-path="url(#highcharts-sae4rkz-158-)"><path fill="none" d="M 245.74481402963 206.21951219512195 L 371.39406665951 133.5 L 497.38748524045 96.07954545454547" class="highcharts-graph" data-z-index="1" stroke="#eeaaee" stroke-width="2" stroke-dasharray="none"></path></g><g class="highcharts-markers highcharts-series-6 highcharts-line-series" data-z-index="0.1" opacity="1" transform="translate(77,47) scale(1 1)" clip-path="none"><path fill="#eeaaee" d="M 245 202 L 249 206 L 245 210 L 241 206 Z" opacity="1" class="highcharts-point"></path><path fill="#eeaaee" d="M 371 130 L 375 134 L 371 138 L 367 134 Z" opacity="1" class="highcharts-point"></path><path fill="#eeaaee" d="M 497 92 L 501 96 L 497 100 L 493 96 Z" opacity="1" class="highcharts-point"></path></g><g class="highcharts-series highcharts-series-7 highcharts-line-series" data-z-index="0.1" opacity="1" transform="translate(77,47) scale(1 1)" clip-path="url(#highcharts-sae4rkz-158-)"><path fill="none" d="M 183.53681837699 253.4237288135593 L 434.80664314083 79.744" class="highcharts-graph" data-z-index="1" stroke="#55BF3B" stroke-width="2" stroke-dasharray="none"></path></g><g class="highcharts-markers highcharts-series-7 highcharts-line-series" data-z-index="0.1" opacity="1" transform="translate(77,47) scale(1 1)" clip-path="none"><path fill="#55BF3B" d="M 179 249 L 187 249 L 187 257 L 179 257 Z" opacity="1" class="highcharts-point"></path><path fill="#55BF3B" d="M 430 76 L 438 76 L 438 84 L 430 84 Z" opacity="1" class="highcharts-point"></path></g><g class="highcharts-series highcharts-series-8 highcharts-line-series" data-z-index="0.1" opacity="1" transform="translate(77,47) scale(1 1)" clip-path="url(#highcharts-sae4rkz-158-)"><path fill="none" d="M 183.59417936883 239.75510204081633 L 309.24343199871 118.66666666666666 L 434.8926846286 55.14130434782609" class="highcharts-graph" data-z-index="1" stroke="#5B5353" stroke-width="2" stroke-dasharray="none"></path></g><g class="highcharts-markers highcharts-series-8 highcharts-line-series" data-z-index="0.1" opacity="1" transform="translate(77,47) scale(1 1)" clip-path="none"><path fill="#5B5353" d="M 183 236 L 187 244 L 179 244 Z" opacity="1" class="highcharts-point"></path><path fill="#5B5353" d="M 309 115 L 313 123 L 305 123 Z" opacity="1" class="highcharts-point"></path><path fill="#5B5353" d="M 434 51 L 438 59 L 430 59 Z" opacity="1" class="highcharts-point"></path></g></g><text x="300" text-anchor="middle" class="highcharts-title" data-z-index="4" style="color:#333333;font-size:18px;fill:#333333;" y="24"><tspan>% PyTorch Papers of Total TensorFlow/PyTorch Papers</tspan></text><text x="300" text-anchor="middle" class="highcharts-subtitle" data-z-index="4" style="color:#666666;fill:#666666;" y="46"></text><text x="10" text-anchor="start" class="highcharts-caption" data-z-index="4" style="color:#666666;fill:#666666;" y="417"></text><g class="highcharts-legend" data-z-index="7" transform="translate(36,366)"><rect fill="none" class="highcharts-legend-box" rx="0" ry="0" x="0" y="0" width="528" height="39" visibility="visible"></rect><g data-z-index="1"><g><g class="highcharts-legend-item highcharts-line-series highcharts-color-undefined highcharts-series-0" data-z-index="1" transform="translate(8,3)"><path fill="none" d="M 0 11 L 16 11" class="highcharts-graph" stroke-dasharray="none" stroke="#7cb5ec" stroke-width="2"></path><path fill="#7cb5ec" d="M 8 15 A 4 4 0 1 1 8.003999999333336 14.999998000000167 Z" class="highcharts-point" opacity="1"></path><text x="21" style="color:#333333;cursor:pointer;font-size:12px;font-weight:bold;fill:#333333;" text-anchor="start" data-z-index="2" y="15"><tspan>ECCV</tspan></text></g><g class="highcharts-legend-item highcharts-line-series highcharts-color-undefined highcharts-series-1" data-z-index="1" transform="translate(96.796875,3)"><path fill="none" d="M 0 11 L 16 11" class="highcharts-graph" stroke-dasharray="none" stroke="#f7a35c" stroke-width="2"></path><path fill="#f7a35c" d="M 8 7 L 12 11 L 8 15 L 4 11 Z" class="highcharts-point" opacity="1"></path><text x="21" y="15" style="color:#333333;cursor:pointer;font-size:12px;font-weight:bold;fill:#333333;" text-anchor="start" data-z-index="2"><tspan>NeurIPS</tspan></text></g><g class="highcharts-legend-item highcharts-line-series highcharts-color-undefined highcharts-series-2" data-z-index="1" transform="translate(185.59375,3)"><path fill="none" d="M 0 11 L 16 11" class="highcharts-graph" stroke-dasharray="none" stroke="#90ee7e" stroke-width="2"></path><path fill="#90ee7e" d="M 4 7 L 12 7 L 12 15 L 4 15 Z" class="highcharts-point" opacity="1"></path><text x="21" y="15" style="color:#333333;cursor:pointer;font-size:12px;font-weight:bold;fill:#333333;" text-anchor="start" data-z-index="2"><tspan>ACL</tspan></text></g><g class="highcharts-legend-item highcharts-line-series highcharts-color-undefined highcharts-series-3" data-z-index="1" transform="translate(274.390625,3)"><path fill="none" d="M 0 11 L 16 11" class="highcharts-graph" stroke-dasharray="none" stroke="#7798BF" stroke-width="2"></path><path fill="#7798BF" d="M 8 7 L 12 15 L 4 15 Z" class="highcharts-point" opacity="1"></path><text x="21" y="15" style="color:#333333;cursor:pointer;font-size:12px;font-weight:bold;fill:#333333;" text-anchor="start" data-z-index="2"><tspan>NAACL</tspan></text></g><g class="highcharts-legend-item highcharts-line-series highcharts-color-undefined highcharts-series-4" data-z-index="1" transform="translate(363.1875,3)"><path fill="none" d="M 0 11 L 16 11" class="highcharts-graph" stroke-dasharray="none" stroke="#aacece" stroke-width="2"></path><path fill="#aacece" d="M 4 7 L 12 7 L 8 15 Z" class="highcharts-point" opacity="1"></path><text x="21" y="15" style="color:#333333;cursor:pointer;font-size:12px;font-weight:bold;fill:#333333;" text-anchor="start" data-z-index="2"><tspan>ICML</tspan></text></g><g class="highcharts-legend-item highcharts-line-series highcharts-color-undefined highcharts-series-5" data-z-index="1" transform="translate(451.984375,3)"><path fill="none" d="M 0 11 L 16 11" class="highcharts-graph" stroke-dasharray="none" stroke="#ff0066" stroke-width="2"></path><path fill="#ff0066" d="M 8 15 A 4 4 0 1 1 8.003999999333336 14.999998000000167 Z" class="highcharts-point" opacity="1"></path><text x="21" y="15" style="color:#333333;cursor:pointer;font-size:12px;font-weight:bold;fill:#333333;" text-anchor="start" data-z-index="2"><tspan>CVPR</tspan></text></g><g class="highcharts-legend-item highcharts-line-series highcharts-color-undefined highcharts-series-6" data-z-index="1" transform="translate(8,17)"><path fill="none" d="M 0 11 L 16 11" class="highcharts-graph" stroke-dasharray="none" stroke="#eeaaee" stroke-width="2"></path><path fill="#eeaaee" d="M 8 7 L 12 11 L 8 15 L 4 11 Z" class="highcharts-point" opacity="1"></path><text x="21" y="15" style="color:#333333;cursor:pointer;font-size:12px;font-weight:bold;fill:#333333;" text-anchor="start" data-z-index="2"><tspan>ICLR</tspan></text></g><g class="highcharts-legend-item highcharts-line-series highcharts-color-undefined highcharts-series-7" data-z-index="1" transform="translate(96.796875,17)"><path fill="none" d="M 0 11 L 16 11" class="highcharts-graph" stroke-dasharray="none" stroke="#55BF3B" stroke-width="2"></path><path fill="#55BF3B" d="M 4 7 L 12 7 L 12 15 L 4 15 Z" class="highcharts-point" opacity="1"></path><text x="21" y="15" style="color:#333333;cursor:pointer;font-size:12px;font-weight:bold;fill:#333333;" text-anchor="start" data-z-index="2"><tspan>ICCV</tspan></text></g><g class="highcharts-legend-item highcharts-line-series highcharts-color-undefined highcharts-series-8" data-z-index="1" transform="translate(185.59375,17)"><path fill="none" d="M 0 11 L 16 11" class="highcharts-graph" stroke-dasharray="none" stroke="#5B5353" stroke-width="2"></path><path fill="#5B5353" d="M 8 7 L 12 15 L 4 15 Z" class="highcharts-point" opacity="1"></path><text x="21" y="15" style="color:#333333;cursor:pointer;font-size:12px;font-weight:bold;fill:#333333;" text-anchor="start" data-z-index="2"><tspan>EMNLP</tspan></text></g></g></g></g><g class="highcharts-axis-labels highcharts-xaxis-labels" data-z-index="7"><text x="155.22203735509" style="color:#666666;cursor:default;font-size:11px;fill:#666666;" text-anchor="middle" transform="translate(0,0)" y="333" opacity="1">2017</text><text x="280.84260948905" style="color:#666666;cursor:default;font-size:11px;fill:#666666;" text-anchor="middle" transform="translate(0,0)" y="333" opacity="1">2018</text><text x="406.46318162301" style="color:#666666;cursor:default;font-size:11px;fill:#666666;" text-anchor="middle" transform="translate(0,0)" y="333" opacity="1">2019</text><text x="532.08375375698" style="color:#666666;cursor:default;font-size:11px;fill:#666666;" text-anchor="middle" transform="translate(0,0)" y="333" opacity="1">2020</text></g><g class="highcharts-axis-labels highcharts-yaxis-labels" data-z-index="7"><text x="62" style="color:#666666;cursor:default;font-size:11px;fill:#666666;" text-anchor="end" transform="translate(0,0)" y="319" opacity="1">0%</text><text x="62" style="color:#666666;cursor:default;font-size:11px;fill:#666666;" text-anchor="end" transform="translate(0,0)" y="265" opacity="1">20%</text><text x="62" style="color:#666666;cursor:default;font-size:11px;fill:#666666;" text-anchor="end" transform="translate(0,0)" y="212" opacity="1">40%</text><text x="62" style="color:#666666;cursor:default;font-size:11px;fill:#666666;" text-anchor="end" transform="translate(0,0)" y="158" opacity="1">60%</text><text x="62" style="color:#666666;cursor:default;font-size:11px;fill:#666666;" text-anchor="end" transform="translate(0,0)" y="105" opacity="1">80%</text><text x="62" style="color:#666666;cursor:default;font-size:11px;fill:#666666;" text-anchor="end" transform="translate(0,0)" y="52" opacity="1">100%</text></g></svg>