<?xml version="1.0" encoding="utf-8" standalone="no"?>
<!DOCTYPE svg PUBLIC "-//W3C//DTD SVG 1.1//EN"
  "http://www.w3.org/Graphics/SVG/1.1/DTD/svg11.dtd">
<!-- Created with matplotlib (https://matplotlib.org/) -->
<svg height="288pt" version="1.1" viewBox="0 0 432 288" width="432pt" xmlns="http://www.w3.org/2000/svg" xmlns:xlink="http://www.w3.org/1999/xlink">
 <defs>
  <style type="text/css">
*{stroke-linecap:butt;stroke-linejoin:round;}
  </style>
 </defs>
 <g id="figure_1">
  <g id="patch_1">
   <path d="M 0 288 
L 432 288 
L 432 0 
L 0 0 
z
" style="fill:#ffffff;"/>
  </g>
  <g id="axes_1">
   <g id="patch_2">
    <path d="M 54 133.396364 
L 388.8 133.396364 
L 388.8 34.56 
L 54 34.56 
z
" style="fill:#ffffff;"/>
   </g>
   <g id="matplotlib.axis_1">
    <g id="xtick_1">
     <g id="line2d_1">
      <defs>
       <path d="M 0 0 
L 0 3.5 
" id="m1e4b8ab57d" style="stroke:#000000;stroke-width:0.8;"/>
      </defs>
      <g>
       <use style="stroke:#000000;stroke-width:0.8;" x="69.218182" xlink:href="#m1e4b8ab57d" y="133.396364"/>
      </g>
     </g>
     <g id="text_1">
      <!-- 0 -->
      <defs>
       <path d="M 31.84375 73.828125 
Q 45.015625 73.828125 52.09375 61.625 
Q 57.71875 51.953125 57.71875 36.625 
Q 57.71875 21.4375 52.09375 11.578125 
Q 45.125 -0.484375 31.5 -0.484375 
Q 17.921875 -0.484375 10.9375 11.578125 
Q 5.328125 21.4375 5.328125 36.71875 
Q 5.328125 58.015625 15.625 67.71875 
Q 22.171875 73.828125 31.84375 73.828125 
z
M 31.5 66.65625 
Q 23.6875 66.65625 19.1875 58.734375 
Q 14.59375 50.734375 14.59375 36.625 
Q 14.59375 22.75 19.09375 14.796875 
Q 23.640625 6.984375 31.5 6.984375 
Q 40.921875 6.984375 45.453125 18.015625 
Q 48.4375 25.34375 48.4375 37.109375 
Q 48.4375 50.875 43.84375 58.734375 
Q 39.203125 66.65625 31.5 66.65625 
z
" id="IPAexGothic-48"/>
      </defs>
      <g transform="translate(66.068963 147.886989)scale(0.1 -0.1)">
       <use xlink:href="#IPAexGothic-48"/>
      </g>
     </g>
    </g>
    <g id="xtick_2">
     <g id="line2d_2">
      <g>
       <use style="stroke:#000000;stroke-width:0.8;" x="133.976402" xlink:href="#m1e4b8ab57d" y="133.396364"/>
      </g>
     </g>
     <g id="text_2">
      <!-- 2 -->
      <defs>
       <path d="M 57.171875 0.984375 
L 6.984375 0.984375 
L 6.984375 9.28125 
Q 12.890625 23.046875 29.59375 34.421875 
L 32.375 36.28125 
Q 40.921875 42.140625 43.609375 45.40625 
Q 46.6875 49.265625 46.6875 53.8125 
Q 46.6875 58.9375 43.0625 62.546875 
Q 39.0625 66.546875 32.5625 66.546875 
Q 19.53125 66.546875 15.484375 52 
L 7.765625 54.78125 
Q 13.328125 73.828125 33.0625 73.828125 
Q 43.84375 73.828125 50.25 67.4375 
Q 55.859375 61.671875 55.859375 53.515625 
Q 55.859375 47.46875 52.25 42.53125 
Q 48.921875 37.75 36.96875 30.28125 
L 34.859375 29 
Q 19.625 19.578125 15.28125 8.890625 
L 57.171875 8.890625 
z
" id="IPAexGothic-50"/>
      </defs>
      <g transform="translate(130.827184 147.886989)scale(0.1 -0.1)">
       <use xlink:href="#IPAexGothic-50"/>
      </g>
     </g>
    </g>
    <g id="xtick_3">
     <g id="line2d_3">
      <g>
       <use style="stroke:#000000;stroke-width:0.8;" x="198.734623" xlink:href="#m1e4b8ab57d" y="133.396364"/>
      </g>
     </g>
     <g id="text_3">
      <!-- 4 -->
      <defs>
       <path d="M 59.578125 18.109375 
L 47.796875 18.109375 
L 47.796875 0.984375 
L 39.796875 0.984375 
L 39.796875 18.109375 
L 3.078125 18.109375 
L 3.078125 26.125 
L 38.375 73.09375 
L 47.796875 73.09375 
L 47.796875 25.53125 
L 59.578125 25.53125 
z
M 40.28125 64.203125 
L 39.984375 64.203125 
Q 35.59375 57.125 31.296875 51.3125 
L 11.859375 25.53125 
L 39.796875 25.53125 
L 39.796875 49.125 
Q 39.796875 54.390625 40.28125 64.203125 
z
" id="IPAexGothic-52"/>
      </defs>
      <g transform="translate(195.585404 147.886989)scale(0.1 -0.1)">
       <use xlink:href="#IPAexGothic-52"/>
      </g>
     </g>
    </g>
    <g id="xtick_4">
     <g id="line2d_4">
      <g>
       <use style="stroke:#000000;stroke-width:0.8;" x="263.492843" xlink:href="#m1e4b8ab57d" y="133.396364"/>
      </g>
     </g>
     <g id="text_4">
      <!-- 6 -->
      <defs>
       <path d="M 16.5 36.375 
Q 23.578125 46.578125 34.90625 46.578125 
Q 45.40625 46.578125 51.8125 39.265625 
Q 57.421875 32.90625 57.421875 23.78125 
Q 57.421875 13.8125 51.125 6.78125 
Q 44.578125 -0.484375 34.03125 -0.484375 
Q 21.484375 -0.484375 14.40625 9.078125 
Q 7.515625 18.40625 7.515625 34.8125 
Q 7.515625 53.515625 15.828125 64.203125 
Q 23.34375 73.828125 35.5 73.828125 
Q 49.859375 73.828125 56.390625 62.890625 
L 49.21875 58.984375 
Q 45.21875 66.65625 35.9375 66.65625 
Q 17.484375 66.65625 16.109375 36.375 
z
M 33.453125 39.796875 
Q 26.3125 39.796875 21.625 34.46875 
Q 17.4375 29.6875 17.4375 24.078125 
Q 17.4375 18.0625 21.140625 13.1875 
Q 26.125 6.6875 33.734375 6.6875 
Q 41.703125 6.6875 45.953125 13.1875 
Q 48.828125 17.625 48.828125 23.484375 
Q 48.828125 30.375 45.015625 34.8125 
Q 40.625 39.796875 33.453125 39.796875 
z
" id="IPAexGothic-54"/>
      </defs>
      <g transform="translate(260.343625 147.886989)scale(0.1 -0.1)">
       <use xlink:href="#IPAexGothic-54"/>
      </g>
     </g>
    </g>
    <g id="xtick_5">
     <g id="line2d_5">
      <g>
       <use style="stroke:#000000;stroke-width:0.8;" x="328.251064" xlink:href="#m1e4b8ab57d" y="133.396364"/>
      </g>
     </g>
     <g id="text_5">
      <!-- 8 -->
      <defs>
       <path d="M 39.703125 37.890625 
Q 57.8125 31.734375 57.8125 18.703125 
Q 57.8125 8.453125 48.4375 3.078125 
Q 41.609375 -0.875 31.5 -0.875 
Q 21.34375 -0.875 14.5 3.078125 
Q 5.421875 8.296875 5.421875 18.40625 
Q 5.421875 31.0625 22.015625 37.203125 
L 22.015625 37.5 
Q 7.515625 42.71875 7.515625 54.828125 
Q 7.515625 64.0625 15.328125 69.625 
Q 21.96875 74.3125 31.546875 74.3125 
Q 42.234375 74.3125 48.921875 68.796875 
Q 55.515625 63.578125 55.515625 55.71875 
Q 55.515625 42.28125 39.703125 38.1875 
z
M 31.59375 41.015625 
Q 46.828125 44.625 46.828125 55.125 
Q 46.828125 61.1875 41.796875 64.84375 
Q 37.703125 67.921875 31.5 67.921875 
Q 25.09375 67.921875 20.796875 64.5 
Q 16.40625 60.890625 16.40625 55.03125 
Q 16.40625 49.21875 21.09375 45.703125 
Q 23.34375 43.890625 26.90625 42.53125 
Q 31 40.875 31.59375 41.015625 
z
M 30.90625 34.515625 
Q 14.40625 30.171875 14.40625 19 
Q 14.40625 12.109375 20.515625 8.6875 
Q 25.09375 6.109375 31.390625 6.109375 
Q 40.234375 6.109375 45.015625 10.890625 
Q 48.53125 14.40625 48.53125 19.53125 
Q 48.53125 24.90625 43.65625 28.90625 
Q 40.765625 31.15625 36.71875 32.8125 
Q 31.984375 34.71875 30.90625 34.515625 
z
" id="IPAexGothic-56"/>
      </defs>
      <g transform="translate(325.101845 147.886989)scale(0.1 -0.1)">
       <use xlink:href="#IPAexGothic-56"/>
      </g>
     </g>
    </g>
   </g>
   <g id="matplotlib.axis_2">
    <g id="ytick_1">
     <g id="line2d_6">
      <defs>
       <path d="M 0 0 
L -3.5 0 
" id="mdea79e2a53" style="stroke:#000000;stroke-width:0.8;"/>
      </defs>
      <g>
       <use style="stroke:#000000;stroke-width:0.8;" x="54" xlink:href="#mdea79e2a53" y="128.90725"/>
      </g>
     </g>
     <g id="text_6">
      <!-- −1 -->
      <defs>
       <path d="M 6.5 34.71875 
L 61.28125 34.71875 
L 61.28125 29 
L 6.5 29 
z
" id="IPAexGothic-8722"/>
       <path d="M 38.484375 0.984375 
L 29.6875 0.984375 
L 29.6875 64.109375 
Q 21.4375 61.28125 12.3125 59.328125 
L 10.6875 66.109375 
Q 23.734375 69.390625 32.90625 73.921875 
L 38.484375 73.921875 
z
" id="IPAexGothic-49"/>
      </defs>
      <g transform="translate(33.91875 132.652563)scale(0.1 -0.1)">
       <use xlink:href="#IPAexGothic-8722"/>
       <use x="67.822266" xlink:href="#IPAexGothic-49"/>
      </g>
     </g>
    </g>
    <g id="ytick_2">
     <g id="line2d_7">
      <g>
       <use style="stroke:#000000;stroke-width:0.8;" x="54" xlink:href="#mdea79e2a53" y="83.970326"/>
      </g>
     </g>
     <g id="text_7">
      <!-- 0 -->
      <g transform="translate(40.701563 87.715638)scale(0.1 -0.1)">
       <use xlink:href="#IPAexGothic-48"/>
      </g>
     </g>
    </g>
    <g id="ytick_3">
     <g id="line2d_8">
      <g>
       <use style="stroke:#000000;stroke-width:0.8;" x="54" xlink:href="#mdea79e2a53" y="39.033401"/>
      </g>
     </g>
     <g id="text_8">
      <!-- 1 -->
      <g transform="translate(40.701563 42.778714)scale(0.1 -0.1)">
       <use xlink:href="#IPAexGothic-49"/>
      </g>
     </g>
    </g>
   </g>
   <g id="line2d_9">
    <path clip-path="url(#p77c005b8a0)" d="M 69.218182 83.970326 
L 72.456093 79.484119 
L 75.694004 75.042737 
L 78.931915 70.690556 
L 82.169826 66.471063 
L 85.407737 62.426416 
L 88.645648 58.597029 
L 91.883559 55.021164 
L 95.12147 51.734549 
L 98.359381 48.770023 
L 101.597292 46.157207 
L 104.835203 43.922208 
L 108.073114 42.087355 
L 111.311025 40.670984 
L 114.548936 39.687245 
L 117.786847 39.145969 
L 121.024758 39.052562 
L 124.262669 39.407959 
L 127.50058 40.208608 
L 130.738491 41.44651 
L 133.976402 43.109296 
L 137.214313 45.180351 
L 140.452224 47.638984 
L 143.690135 50.460627 
L 146.928046 53.617088 
L 150.165957 57.076828 
L 153.403868 60.805279 
L 156.641779 64.765188 
L 159.879691 68.916988 
L 163.117602 73.219197 
L 166.355513 77.628826 
L 169.593424 82.101819 
L 172.831335 86.59348 
L 176.069246 91.058932 
L 179.307157 95.453557 
L 182.545068 99.733445 
L 185.782979 103.855833 
L 189.02089 107.779532 
L 192.258801 111.465338 
L 195.496712 114.876422 
L 198.734623 117.978702 
L 201.972534 120.741182 
L 205.210445 123.13626 
L 208.448356 125.140005 
L 211.686267 126.732396 
L 214.924178 127.897523 
L 218.162089 128.623743 
L 221.4 128.903802 
L 224.637911 128.7349 
L 227.875822 128.118725 
L 231.113733 127.061433 
L 234.351644 125.57359 
L 237.589555 123.670061 
L 240.827466 121.369865 
L 244.065377 118.695985 
L 247.303288 115.675138 
L 250.541199 112.337507 
L 253.77911 108.71644 
L 257.017021 104.848119 
L 260.254932 100.771193 
L 263.492843 96.526399 
L 266.730754 92.156148 
L 269.968665 87.704108 
L 273.206576 83.214761 
L 276.444487 78.732963 
L 279.682398 74.303495 
L 282.920309 69.970615 
L 286.158221 65.777615 
L 289.396132 61.766391 
L 292.634043 57.977022 
L 295.871954 54.447368 
L 299.109865 51.212699 
L 302.347776 48.305333 
L 305.585687 45.754319 
L 308.823598 43.585148 
L 312.061509 41.819491 
L 315.29942 40.474992 
L 318.537331 39.565084 
L 321.775242 39.098859 
L 325.013153 39.080974 
L 328.251064 39.511609 
L 331.488975 40.38646 
L 334.726886 41.696788 
L 337.964797 43.429498 
L 341.202708 45.567279 
L 344.440619 48.08877 
L 347.67853 50.968779 
L 350.916441 54.178527 
L 354.154352 57.685946 
L 357.392263 61.455989 
L 360.630174 65.450988 
L 363.868085 69.631027 
L 367.105996 73.954338 
L 370.343907 78.377727 
L 373.581818 82.856994 
" style="fill:none;stroke:#1f77b4;stroke-linecap:square;stroke-width:1.5;"/>
   </g>
   <g id="patch_3">
    <path d="M 54 133.396364 
L 54 34.56 
" style="fill:none;stroke:#000000;stroke-linecap:square;stroke-linejoin:miter;stroke-width:0.8;"/>
   </g>
   <g id="patch_4">
    <path d="M 388.8 133.396364 
L 388.8 34.56 
" style="fill:none;stroke:#000000;stroke-linecap:square;stroke-linejoin:miter;stroke-width:0.8;"/>
   </g>
   <g id="patch_5">
    <path d="M 54 133.396364 
L 388.8 133.396364 
" style="fill:none;stroke:#000000;stroke-linecap:square;stroke-linejoin:miter;stroke-width:0.8;"/>
   </g>
   <g id="patch_6">
    <path d="M 54 34.56 
L 388.8 34.56 
" style="fill:none;stroke:#000000;stroke-linecap:square;stroke-linejoin:miter;stroke-width:0.8;"/>
   </g>
   <g id="text_9">
    <!-- Sine -->
    <defs>
     <path d="M 45.609375 56.890625 
Q 40.046875 66.546875 28.953125 66.546875 
Q 22.703125 66.546875 18.953125 62.640625 
Q 16.0625 59.421875 16.0625 55.21875 
Q 16.0625 50.59375 19.78125 47.609375 
Q 22.5625 45.515625 31 42 
L 34.375 40.578125 
Q 45.703125 36.03125 49.859375 30.515625 
Q 53.46875 25.6875 53.46875 19.671875 
Q 53.46875 10.0625 46.390625 4.5 
Q 39.984375 -0.484375 30.171875 -0.484375 
Q 13.765625 -0.484375 4.890625 11.96875 
L 11.765625 17.1875 
Q 18.796875 7.171875 30.28125 7.171875 
Q 35.75 7.171875 39.59375 9.765625 
Q 44.390625 13.234375 44.390625 19 
Q 44.390625 23.484375 40.875 27 
Q 37.109375 30.609375 27 34.46875 
L 24.078125 35.59375 
Q 7.078125 42.09375 7.078125 54.390625 
Q 7.078125 62.59375 12.59375 67.921875 
Q 18.796875 73.828125 29.109375 73.828125 
Q 44.390625 73.828125 52.484375 61.8125 
z
" id="IPAexGothic-83"/>
     <path d="M 18.40625 61.375 
L 8.59375 61.375 
L 8.59375 71.390625 
L 18.40625 71.390625 
z
M 17.78125 0.984375 
L 9.1875 0.984375 
L 9.1875 50.78125 
L 17.78125 50.78125 
z
" id="IPAexGothic-105"/>
     <path d="M 52 0.984375 
L 43.40625 0.984375 
L 43.40625 31.890625 
Q 43.40625 44.578125 32.90625 44.578125 
Q 22.3125 44.578125 17.390625 31.890625 
L 17.390625 0.984375 
L 8.796875 0.984375 
L 8.796875 50.78125 
L 16.796875 50.78125 
L 16.796875 41.796875 
Q 23.828125 51.8125 34.71875 51.8125 
Q 52 51.8125 52 32.375 
z
" id="IPAexGothic-110"/>
     <path d="M 13.484375 24.90625 
Q 13.921875 16.265625 18.890625 11.28125 
Q 23.96875 6.203125 31.203125 6.203125 
Q 40.71875 6.203125 46.296875 15.09375 
L 51.90625 11.375 
Q 44.828125 -0.484375 30.171875 -0.484375 
Q 19.09375 -0.484375 11.96875 6.59375 
Q 4.78125 13.8125 4.78125 25.640625 
Q 4.78125 38.1875 12.3125 45.703125 
Q 19 52.390625 29 52.390625 
Q 38.421875 52.390625 44.78125 46.1875 
Q 51.90625 38.96875 51.90625 26.90625 
L 51.90625 24.90625 
z
M 43.0625 31.203125 
Q 42.328125 37.984375 38.28125 41.890625 
Q 34.28125 45.90625 28.8125 45.90625 
Q 22.46875 45.90625 17.96875 40.484375 
Q 14.890625 36.8125 13.96875 31.203125 
z
" id="IPAexGothic-101"/>
    </defs>
    <g transform="translate(209.232188 28.56)scale(0.12 -0.12)">
     <use xlink:href="#IPAexGothic-83"/>
     <use x="58.496094" xlink:href="#IPAexGothic-105"/>
     <use x="85.498047" xlink:href="#IPAexGothic-110"/>
     <use x="145.898438" xlink:href="#IPAexGothic-101"/>
    </g>
   </g>
  </g>
  <g id="axes_2">
   <g id="patch_7">
    <path d="M 54 252 
L 388.8 252 
L 388.8 153.163636 
L 54 153.163636 
z
" style="fill:#ffffff;"/>
   </g>
   <g id="matplotlib.axis_3">
    <g id="xtick_6">
     <g id="line2d_10">
      <g>
       <use style="stroke:#000000;stroke-width:0.8;" x="69.218182" xlink:href="#m1e4b8ab57d" y="252"/>
      </g>
     </g>
     <g id="text_10">
      <!-- 0 -->
      <g transform="translate(66.068963 266.490625)scale(0.1 -0.1)">
       <use xlink:href="#IPAexGothic-48"/>
      </g>
     </g>
    </g>
    <g id="xtick_7">
     <g id="line2d_11">
      <g>
       <use style="stroke:#000000;stroke-width:0.8;" x="133.976402" xlink:href="#m1e4b8ab57d" y="252"/>
      </g>
     </g>
     <g id="text_11">
      <!-- 2 -->
      <g transform="translate(130.827184 266.490625)scale(0.1 -0.1)">
       <use xlink:href="#IPAexGothic-50"/>
      </g>
     </g>
    </g>
    <g id="xtick_8">
     <g id="line2d_12">
      <g>
       <use style="stroke:#000000;stroke-width:0.8;" x="198.734623" xlink:href="#m1e4b8ab57d" y="252"/>
      </g>
     </g>
     <g id="text_12">
      <!-- 4 -->
      <g transform="translate(195.585404 266.490625)scale(0.1 -0.1)">
       <use xlink:href="#IPAexGothic-52"/>
      </g>
     </g>
    </g>
    <g id="xtick_9">
     <g id="line2d_13">
      <g>
       <use style="stroke:#000000;stroke-width:0.8;" x="263.492843" xlink:href="#m1e4b8ab57d" y="252"/>
      </g>
     </g>
     <g id="text_13">
      <!-- 6 -->
      <g transform="translate(260.343625 266.490625)scale(0.1 -0.1)">
       <use xlink:href="#IPAexGothic-54"/>
      </g>
     </g>
    </g>
    <g id="xtick_10">
     <g id="line2d_14">
      <g>
       <use style="stroke:#000000;stroke-width:0.8;" x="328.251064" xlink:href="#m1e4b8ab57d" y="252"/>
      </g>
     </g>
     <g id="text_14">
      <!-- 8 -->
      <g transform="translate(325.101845 266.490625)scale(0.1 -0.1)">
       <use xlink:href="#IPAexGothic-56"/>
      </g>
     </g>
    </g>
   </g>
   <g id="matplotlib.axis_4">
    <g id="ytick_4">
     <g id="line2d_15">
      <g>
       <use style="stroke:#000000;stroke-width:0.8;" x="54" xlink:href="#mdea79e2a53" y="247.52123"/>
      </g>
     </g>
     <g id="text_15">
      <!-- −1 -->
      <g transform="translate(33.91875 251.266543)scale(0.1 -0.1)">
       <use xlink:href="#IPAexGothic-8722"/>
       <use x="67.822266" xlink:href="#IPAexGothic-49"/>
      </g>
     </g>
    </g>
    <g id="ytick_5">
     <g id="line2d_16">
      <g>
       <use style="stroke:#000000;stroke-width:0.8;" x="54" xlink:href="#mdea79e2a53" y="202.588714"/>
      </g>
     </g>
     <g id="text_16">
      <!-- 0 -->
      <g transform="translate(40.701563 206.334027)scale(0.1 -0.1)">
       <use xlink:href="#IPAexGothic-48"/>
      </g>
     </g>
    </g>
    <g id="ytick_6">
     <g id="line2d_17">
      <g>
       <use style="stroke:#000000;stroke-width:0.8;" x="54" xlink:href="#mdea79e2a53" y="157.656198"/>
      </g>
     </g>
     <g id="text_17">
      <!-- 1 -->
      <g transform="translate(40.701563 161.401511)scale(0.1 -0.1)">
       <use xlink:href="#IPAexGothic-49"/>
      </g>
     </g>
    </g>
   </g>
   <g id="line2d_18">
    <path clip-path="url(#pdff97fdf12)" d="M 69.218182 157.656198 
L 72.456093 157.880674 
L 75.694004 158.551857 
L 78.931915 159.663042 
L 82.169826 161.203126 
L 85.407737 163.156722 
L 88.645648 165.504309 
L 91.883559 168.222431 
L 95.12147 171.283929 
L 98.359381 174.658215 
L 101.597292 178.311572 
L 104.835203 182.207499 
L 108.073114 186.307069 
L 111.311025 190.569319 
L 114.548936 194.951663 
L 117.786847 199.410314 
L 121.024758 203.900722 
L 124.262669 208.378022 
L 127.50058 212.797476 
L 130.738491 217.114928 
L 133.976402 221.287239 
L 137.214313 225.27272 
L 140.452224 229.03155 
L 143.690135 232.526172 
L 146.928046 235.721669 
L 150.165957 238.586113 
L 153.403868 241.090882 
L 156.641779 243.21095 
L 159.879691 244.925135 
L 163.117602 246.216308 
L 166.355513 247.071568 
L 169.593424 247.482371 
L 172.831335 247.44461 
L 176.069246 246.958665 
L 179.307157 246.02939 
L 182.545068 244.666069 
L 185.782979 242.882326 
L 189.02089 240.695983 
L 192.258801 238.128884 
L 195.496712 235.206679 
L 198.734623 231.958567 
L 201.972534 228.417001 
L 205.210445 224.617367 
L 208.448356 220.59763 
L 211.686267 216.397953 
L 214.924178 212.0603 
L 218.162089 207.62801 
L 221.4 203.145368 
L 224.637911 198.657165 
L 227.875822 194.208244 
L 231.113733 189.843059 
L 234.351644 185.605223 
L 237.589555 181.537082 
L 240.827466 177.679281 
L 244.065377 174.070367 
L 247.303288 170.746398 
L 250.541199 167.740588 
L 253.77911 165.082969 
L 257.017021 162.800094 
L 260.254932 160.914775 
L 263.492843 159.445848 
L 266.730754 158.40799 
L 269.968665 157.811571 
L 273.206576 157.66255 
L 276.444487 157.962417 
L 279.682398 158.708175 
L 282.920309 159.892373 
L 286.158221 161.503179 
L 289.396132 163.524498 
L 292.634043 165.936133 
L 295.871954 168.713989 
L 299.109865 171.83031 
L 302.347776 175.253959 
L 305.585687 178.950728 
L 308.823598 182.88368 
L 312.061509 187.013517 
L 315.29942 191.298977 
L 318.537331 195.697241 
L 321.775242 200.164362 
L 325.013153 204.655706 
L 328.251064 209.126397 
L 331.488975 213.531766 
L 334.726886 217.827796 
L 337.964797 221.971561 
L 341.202708 225.92166 
L 344.440619 229.638624 
L 347.67853 233.085314 
L 350.916441 236.227292 
L 354.154352 239.033164 
L 357.392263 241.474896 
L 360.630174 243.528089 
L 363.868085 245.17223 
L 367.105996 246.390891 
L 370.343907 247.171895 
L 373.581818 247.507438 
" style="fill:none;stroke:#1f77b4;stroke-linecap:square;stroke-width:1.5;"/>
   </g>
   <g id="patch_8">
    <path d="M 54 252 
L 54 153.163636 
" style="fill:none;stroke:#000000;stroke-linecap:square;stroke-linejoin:miter;stroke-width:0.8;"/>
   </g>
   <g id="patch_9">
    <path d="M 388.8 252 
L 388.8 153.163636 
" style="fill:none;stroke:#000000;stroke-linecap:square;stroke-linejoin:miter;stroke-width:0.8;"/>
   </g>
   <g id="patch_10">
    <path d="M 54 252 
L 388.8 252 
" style="fill:none;stroke:#000000;stroke-linecap:square;stroke-linejoin:miter;stroke-width:0.8;"/>
   </g>
   <g id="patch_11">
    <path d="M 54 153.163636 
L 388.8 153.163636 
" style="fill:none;stroke:#000000;stroke-linecap:square;stroke-linejoin:miter;stroke-width:0.8;"/>
   </g>
   <g id="text_18">
    <!-- Cosine -->
    <defs>
     <path d="M 68.015625 17 
Q 65.328125 10.84375 60.296875 6.6875 
Q 51.765625 -0.484375 39.984375 -0.484375 
Q 24.8125 -0.484375 14.984375 10.203125 
Q 5.90625 20.21875 5.90625 36.421875 
Q 5.90625 53.21875 15.828125 63.71875 
Q 25.296875 73.828125 39.59375 73.828125 
Q 59.578125 73.828125 67.53125 56.6875 
L 59.515625 52.984375 
Q 53.515625 66.21875 39.703125 66.21875 
Q 29.546875 66.21875 22.703125 58.5 
Q 15.53125 50.25 15.53125 36.28125 
Q 15.53125 24.21875 21.625 16.5 
Q 28.765625 7.375 40.046875 7.375 
Q 54 7.375 60.59375 20.609375 
z
" id="IPAexGothic-67"/>
     <path d="M 29.984375 52.203125 
Q 40.53125 52.203125 47.75 45.125 
Q 55.171875 37.703125 55.171875 25.59375 
Q 55.171875 13.875 47.90625 6.59375 
Q 40.765625 -0.484375 29.984375 -0.484375 
Q 19.1875 -0.484375 12.203125 6.5 
Q 4.890625 13.765625 4.890625 25.875 
Q 4.890625 37.703125 12.3125 45.125 
Q 19.390625 52.203125 29.984375 52.203125 
z
M 29.984375 45.609375 
Q 23.734375 45.609375 19.390625 41.109375 
Q 13.875 35.59375 13.875 25.78125 
Q 13.875 16.109375 19.28125 10.6875 
Q 23.6875 6.296875 29.984375 6.296875 
Q 36.421875 6.296875 40.765625 10.796875 
Q 46.1875 16.21875 46.1875 26.125 
Q 46.1875 35.453125 40.671875 41.109375 
Q 36.1875 45.609375 29.984375 45.609375 
z
" id="IPAexGothic-111"/>
     <path d="M 34.90625 39.796875 
Q 30.28125 45.796875 23.1875 45.796875 
Q 13.921875 45.796875 13.921875 38.671875 
Q 13.921875 33.640625 23.921875 30.375 
L 27.203125 29.296875 
Q 41.40625 24.65625 41.40625 13.96875 
Q 41.40625 6.78125 35.5 2.6875 
Q 30.8125 -0.484375 23.390625 -0.484375 
Q 11.96875 -0.484375 4 7.859375 
L 9.421875 12.796875 
Q 15.578125 6.203125 23.6875 6.203125 
Q 33.296875 6.203125 33.296875 13.671875 
Q 33.296875 19.34375 22.703125 23.09375 
L 19.28125 24.265625 
Q 5.90625 28.953125 5.90625 37.984375 
Q 5.90625 43.703125 9.8125 47.609375 
Q 14.5 52.296875 22.703125 52.296875 
Q 33.6875 52.296875 40.71875 44.671875 
z
" id="IPAexGothic-115"/>
    </defs>
    <g transform="translate(201.995625 147.163636)scale(0.12 -0.12)">
     <use xlink:href="#IPAexGothic-67"/>
     <use x="72.509766" xlink:href="#IPAexGothic-111"/>
     <use x="132.910156" xlink:href="#IPAexGothic-115"/>
     <use x="179.101562" xlink:href="#IPAexGothic-105"/>
     <use x="206.103516" xlink:href="#IPAexGothic-110"/>
     <use x="266.503906" xlink:href="#IPAexGothic-101"/>
    </g>
   </g>
  </g>
 </g>
 <defs>
  <clipPath id="p77c005b8a0">
   <rect height="98.836364" width="334.8" x="54" y="34.56"/>
  </clipPath>
  <clipPath id="pdff97fdf12">
   <rect height="98.836364" width="334.8" x="54" y="153.163636"/>
  </clipPath>
 </defs>
</svg>
